<mxfile host="app.diagrams.net" agent="Mozilla/5.0 (X11; Linux x86_64) AppleWebKit/537.36 (KHTML, like Gecko) Chrome/130.0.0.0 Safari/537.36" version="24.8.4">
  <diagram name="Page-1" id="RSPDX0aoDZLIOoqm89Gl">
    <mxGraphModel>
      <root>
        <mxCell id="0" />
        <mxCell id="1" parent="0" />
        <mxCell id="2" value="Start" style="ellipse;aspect=fixed;strokeWidth=2;whiteSpace=wrap;" vertex="1" parent="1">
          <mxGeometry x="230" y="8" width="49" height="49" as="geometry" />
        </mxCell>
        <mxCell id="3" value="Get Event Details" style="rhombus;strokeWidth=2;whiteSpace=wrap;" vertex="1" parent="1">
          <mxGeometry x="169" y="107" width="172" height="172" as="geometry" />
        </mxCell>
        <mxCell id="4" value="Validate Event" style="rhombus;strokeWidth=2;whiteSpace=wrap;" vertex="1" parent="1">
          <mxGeometry x="180" y="329" width="150" height="150" as="geometry" />
        </mxCell>
        <mxCell id="5" value="Check Availability" style="rhombus;strokeWidth=2;whiteSpace=wrap;" vertex="1" parent="1">
          <mxGeometry x="109" y="549" width="171" height="171" as="geometry" />
        </mxCell>
        <mxCell id="6" value="Notify User" style="rounded=1;arcSize=40;strokeWidth=2" vertex="1" parent="1">
          <mxGeometry x="204" y="1102" width="110" height="47" as="geometry" />
        </mxCell>
        <mxCell id="7" value="Validate User" style="rhombus;strokeWidth=2;whiteSpace=wrap;" vertex="1" parent="1">
          <mxGeometry x="70" y="792" width="143" height="143" as="geometry" />
        </mxCell>
        <mxCell id="8" value="BookEvent" style="whiteSpace=wrap;strokeWidth=2;" vertex="1" parent="1">
          <mxGeometry x="8" y="1005" width="138" height="47" as="geometry" />
        </mxCell>
        <mxCell id="9" value="End" style="ellipse;aspect=fixed;strokeWidth=2;whiteSpace=wrap;" vertex="1" parent="1">
          <mxGeometry x="193" y="1199" width="43" height="43" as="geometry" />
        </mxCell>
        <mxCell id="10" value="" style="curved=1;startArrow=none;endArrow=block;exitX=0.51;exitY=1.01;entryX=0.5;entryY=0;" edge="1" parent="1" source="2" target="3">
          <mxGeometry relative="1" as="geometry">
            <Array as="points" />
          </mxGeometry>
        </mxCell>
        <mxCell id="11" value="" style="curved=1;startArrow=none;endArrow=block;exitX=0.5;exitY=1;entryX=0.5;entryY=0;" edge="1" parent="1" source="3" target="4">
          <mxGeometry relative="1" as="geometry">
            <Array as="points" />
          </mxGeometry>
        </mxCell>
        <mxCell id="12" value="Valid" style="curved=1;startArrow=none;endArrow=block;exitX=0.23;exitY=1;entryX=0.5;entryY=0;" edge="1" parent="1" source="4" target="5">
          <mxGeometry relative="1" as="geometry">
            <Array as="points">
              <mxPoint x="195" y="514" />
            </Array>
          </mxGeometry>
        </mxCell>
        <mxCell id="13" value="Invalid" style="curved=1;startArrow=none;endArrow=block;exitX=1;exitY=0.91;entryX=1;entryY=0.06;" edge="1" parent="1" source="4" target="6">
          <mxGeometry relative="1" as="geometry">
            <Array as="points">
              <mxPoint x="388" y="514" />
              <mxPoint x="388" y="1077" />
            </Array>
          </mxGeometry>
        </mxCell>
        <mxCell id="14" value="Available" style="curved=1;startArrow=none;endArrow=block;exitX=0.28;exitY=1;entryX=0.5;entryY=0;" edge="1" parent="1" source="5" target="7">
          <mxGeometry relative="1" as="geometry">
            <Array as="points">
              <mxPoint x="142" y="756" />
            </Array>
          </mxGeometry>
        </mxCell>
        <mxCell id="15" value="Not Available" style="curved=1;startArrow=none;endArrow=block;exitX=0.91;exitY=1;entryX=0.65;entryY=0;" edge="1" parent="1" source="5" target="6">
          <mxGeometry relative="1" as="geometry">
            <Array as="points">
              <mxPoint x="294" y="756" />
              <mxPoint x="294" y="1077" />
            </Array>
          </mxGeometry>
        </mxCell>
        <mxCell id="16" value="Valid" style="curved=1;startArrow=none;endArrow=block;exitX=0.2;exitY=0.99;entryX=0.5;entryY=0;" edge="1" parent="1" source="7" target="8">
          <mxGeometry relative="1" as="geometry">
            <Array as="points">
              <mxPoint x="77" y="970" />
            </Array>
          </mxGeometry>
        </mxCell>
        <mxCell id="17" value="Invalid" style="curved=1;startArrow=none;endArrow=block;exitX=0.8;exitY=0.99;entryX=0.27;entryY=0;" edge="1" parent="1" source="7" target="6">
          <mxGeometry relative="1" as="geometry">
            <Array as="points">
              <mxPoint x="206" y="970" />
              <mxPoint x="206" y="1077" />
            </Array>
          </mxGeometry>
        </mxCell>
        <mxCell id="18" value="" style="curved=1;startArrow=none;endArrow=block;exitX=0.46;exitY=1;entryX=0;entryY=0.21;" edge="1" parent="1" source="8" target="6">
          <mxGeometry relative="1" as="geometry">
            <Array as="points">
              <mxPoint x="67" y="1077" />
            </Array>
          </mxGeometry>
        </mxCell>
        <mxCell id="19" value="" style="curved=1;startArrow=none;endArrow=block;exitX=0.57;exitY=1;entryX=-0.01;entryY=0.31;" edge="1" parent="1" source="8" target="9">
          <mxGeometry relative="1" as="geometry">
            <Array as="points">
              <mxPoint x="97" y="1077" />
              <mxPoint x="97" y="1174" />
            </Array>
          </mxGeometry>
        </mxCell>
        <mxCell id="20" value="" style="curved=1;startArrow=none;endArrow=block;exitX=0.5;exitY=1;entryX=0.98;entryY=0;" edge="1" parent="1" source="6" target="9">
          <mxGeometry relative="1" as="geometry">
            <Array as="points">
              <mxPoint x="259" y="1174" />
            </Array>
          </mxGeometry>
        </mxCell>
      </root>
    </mxGraphModel>
  </diagram>
</mxfile>
